<svg width="24" height="24" viewBox="0 0 24 24" fill="none" xmlns="http://www.w3.org/2000/svg">
<path fill-rule="evenodd" clip-rule="evenodd" d="M3.82114 4.77926L4.04878 4.56898L4.29269 4.35871L4.53659 4.18078L4.79675 4.00285L5.05691 3.8411L5.33333 3.69553L5.60976 3.56613L5.88618 3.43673L6.1626 3.33968L6.45529 3.24263L6.74797 3.17793L7.04065 3.11323L7.33333 3.0647L7.62602 3.03235L7.93496 3H8.22764H8.52033L8.82927 3.03235L9.12195 3.0647L9.41464 3.11323L9.70732 3.17793L10 3.24263L10.2927 3.33968L10.5691 3.43673L10.8455 3.56613L11.122 3.69553L11.3984 3.8411L11.6585 4.00285L11.9187 4.18078L12 4.24009L12.0813 4.18078L12.3415 4.00285L12.6016 3.8411L12.878 3.69553L13.1545 3.56613L13.4309 3.43673L13.7073 3.33968L14 3.24263L14.2927 3.17793L14.5854 3.11323L14.878 3.0647L15.1707 3.03235L15.4634 3H15.7724H16.065L16.3577 3.03235L16.6667 3.0647L16.9593 3.11323L17.252 3.17793L17.5447 3.24263L17.8211 3.33968L18.1138 3.43673L18.3902 3.56613L18.6667 3.69553L18.9268 3.8411L19.2033 4.00285L19.4472 4.18078L19.7073 4.35871L19.935 4.56898L20.1789 4.77926L20.3902 5.00571L20.6016 5.24833L20.7967 5.49096L20.9756 5.74976L21.1382 6.00856L21.2846 6.26736L21.4309 6.54234L21.5447 6.81732L21.6585 7.09229L21.7398 7.36727L21.8211 7.65842L21.8862 7.94957L21.935 8.24072L21.9675 8.53187L22 8.82303V9.11418V9.4215L21.9675 9.71265L21.935 10.0038L21.8862 10.295L21.8211 10.5861L21.7398 10.8773L21.6585 11.1522L21.5447 11.4272L21.4309 11.7022L21.2846 11.9772L21.1382 12.236L20.9756 12.4948L20.7967 12.7536L20.6016 12.9962L20.3902 13.2388L20.1789 13.4653L14.5528 18.9648L14.4065 19.0942L14.2764 19.2074L14.1301 19.3206L13.9837 19.4177L13.8211 19.5147L13.6748 19.5956L13.5122 19.6765L13.3496 19.7412L13.187 19.8059L13.0244 19.8544L12.8618 19.9029L12.6829 19.9353L12.5203 19.9676L12.3415 19.9838L12.1789 20H12H11.8211L11.6585 19.9838L11.4797 19.9676L11.3171 19.9353L11.1382 19.9029L10.9756 19.8544L10.813 19.8059L10.6504 19.7412L10.4878 19.6765L10.3252 19.5956L10.1626 19.5147L10.0163 19.4177L9.86992 19.3206L9.72358 19.2074L9.5935 19.0942L9.44715 18.9648L3.82114 13.4653L3.5935 13.2388L3.39837 12.9962L3.20325 12.7536L3.02439 12.4948L2.86179 12.236L2.71545 11.9772L2.56911 11.7022L2.45529 11.4272L2.34146 11.1522L2.2439 10.8773L2.17886 10.5861L2.11382 10.295L2.06504 10.0038L2.01626 9.71265L2 9.4215V9.11418V8.82303L2.01626 8.53187L2.06504 8.24072L2.11382 7.94957L2.17886 7.65842L2.2439 7.36727L2.34146 7.09229L2.45529 6.81732L2.56911 6.54234L2.71545 6.26736L2.86179 6.00856L3.02439 5.74976L3.20325 5.49096L3.39837 5.24833L3.5935 5.00571L3.82114 4.77926Z" fill="url(#paint0_linear_3907_102814)"/>
<defs>
<linearGradient id="paint0_linear_3907_102814" x1="3.15942" y1="2.99999" x2="23.5956" y2="4.57804" gradientUnits="userSpaceOnUse">
<stop stop-color="#3077B7"/>
<stop offset="0.309439" stop-color="#49448D"/>
<stop offset="1" stop-color="#CD3984"/>
</linearGradient>
</defs>
</svg>
