<svg width="24" height="24" viewBox="0 0 24 24" fill="none" xmlns="http://www.w3.org/2000/svg">
<path fill-rule="evenodd" clip-rule="evenodd" d="M3.82114 4.77926L4.04878 4.56898L4.29269 4.35871L4.53659 4.18078L4.79675 4.00285L5.05691 3.8411L5.33333 3.69553L5.60976 3.56613L5.88618 3.43673L6.1626 3.33968L6.45529 3.24263L6.74797 3.17793L7.04065 3.11323L7.33333 3.0647L7.62602 3.03235L7.93496 3H8.22764H8.52033L8.82927 3.03235L9.12195 3.0647L9.41464 3.11323L9.70732 3.17793L10 3.24263L10.2927 3.33968L10.5691 3.43673L10.8455 3.56613L11.122 3.69553L11.3984 3.8411L11.6585 4.00285L11.9187 4.18078L12 4.24009L12.0813 4.18078L12.3415 4.00285L12.6016 3.8411L12.878 3.69553L13.1545 3.56613L13.4309 3.43673L13.7073 3.33968L14 3.24263L14.2927 3.17793L14.5854 3.11323L14.878 3.0647L15.1707 3.03235L15.4634 3H15.7724H16.065L16.3577 3.03235L16.6667 3.0647L16.9593 3.11323L17.252 3.17793L17.5447 3.24263L17.8211 3.33968L18.1138 3.43673L18.3902 3.56613L18.6667 3.69553L18.9268 3.8411L19.2033 4.00285L19.4472 4.18078L19.7073 4.35871L19.935 4.56898L20.1789 4.77926L20.3902 5.00571L20.6016 5.24833L20.7967 5.49096L20.9756 5.74976L21.1382 6.00856L21.2846 6.26736L21.4309 6.54234L21.5447 6.81732L21.6585 7.09229L21.7398 7.36727L21.8211 7.65842L21.8862 7.94957L21.935 8.24072L21.9675 8.53187L22 8.82303V9.11418V9.4215L21.9675 9.71265L21.935 10.0038L21.8862 10.295L21.8211 10.5861L21.7398 10.8773L21.6585 11.1522L21.5447 11.4272L21.4309 11.7022L21.2846 11.9772L21.1382 12.236L20.9756 12.4948L20.7967 12.7536L20.6016 12.9962L20.3902 13.2388L20.1789 13.4653L14.5528 18.9648L14.4065 19.0942L14.2764 19.2074L14.1301 19.3206L13.9837 19.4177L13.8211 19.5147L13.6748 19.5956L13.5122 19.6765L13.3496 19.7412L13.187 19.8059L13.0244 19.8544L12.8618 19.9029L12.6829 19.9353L12.5203 19.9676L12.3415 19.9838L12.1789 20H12H11.8211L11.6585 19.9838L11.4797 19.9676L11.3171 19.9353L11.1382 19.9029L10.9756 19.8544L10.813 19.8059L10.6504 19.7412L10.4878 19.6765L10.3252 19.5956L10.1626 19.5147L10.0163 19.4177L9.86992 19.3206L9.72358 19.2074L9.5935 19.0942L9.44715 18.9648L3.82114 13.4653L3.5935 13.2388L3.39837 12.9962L3.20325 12.7536L3.02439 12.4948L2.86179 12.236L2.71545 11.9772L2.56911 11.7022L2.45529 11.4272L2.34146 11.1522L2.2439 10.8773L2.17886 10.5861L2.11382 10.295L2.06504 10.0038L2.01626 9.71265L2 9.4215V9.11418V8.82303L2.01626 8.53187L2.06504 8.24072L2.11382 7.94957L2.17886 7.65842L2.2439 7.36727L2.34146 7.09229L2.45529 6.81732L2.56911 6.54234L2.71545 6.26736L2.86179 6.00856L3.02439 5.74976L3.20325 5.49096L3.39837 5.24833L3.5935 5.00571L3.82114 4.77926ZM5.08943 12.1713L10.7154 17.6708L10.7805 17.7355L10.8618 17.8002L10.9268 17.8487L11.0081 17.8972L11.0732 17.9458L11.1545 17.9943L11.2358 18.0266L11.3171 18.059L11.3984 18.0913L11.4797 18.1237L11.561 18.1399L11.6585 18.1722H11.7398L11.8211 18.1884H11.9187L12 18.2046L12.0813 18.1884H12.1789L12.2602 18.1722H12.3415L12.439 18.1399L12.5203 18.1237L12.6016 18.0913L12.6829 18.059L12.7642 18.0266L12.8455 17.9943L12.9268 17.9458L12.9919 17.8972L13.0732 17.8487L13.1382 17.8002L13.2195 17.7355L13.2846 17.6708L18.9106 12.1713L19.0569 12.0095L19.2033 11.8316L19.3496 11.6698L19.4634 11.4919L19.5772 11.314L19.6911 11.1199L19.7886 10.942L19.8699 10.7479L19.9512 10.5538L20.0163 10.3435L20.065 10.1494L20.1138 9.93911L20.1463 9.745L20.1789 9.53473V9.32445L20.1951 9.11418L20.1789 8.92008V8.7098L20.1463 8.49952L20.1138 8.30542L20.065 8.09515L20.0163 7.90105L19.9512 7.69077L19.8699 7.49667L19.7886 7.30257L19.6911 7.12464L19.5772 6.93054L19.4634 6.75262L19.3496 6.57469L19.2033 6.39676L19.0569 6.23501L18.9106 6.07326L18.748 5.92769L18.5691 5.78211L18.3902 5.65271L18.2114 5.52331L18.0325 5.41009L17.8374 5.29686L17.6423 5.21598L17.4472 5.11893L17.2358 5.05423L17.0406 4.98953L16.8293 4.94101L16.6179 4.89248L16.4065 4.86013L16.1951 4.82778L15.9837 4.81161H15.7724H15.561L15.3496 4.82778L15.122 4.86013L14.9106 4.89248L14.7154 4.94101L14.5041 4.98953L14.2927 5.05423L14.0976 5.13511L13.9024 5.21598L13.7073 5.31304L13.5122 5.41009L13.3171 5.52331L13.1382 5.65271L12.9756 5.78211L12.7967 5.92769L12.6341 6.07326H12.6338C12.2752 6.41335 11.7181 6.42364 11.3659 6.07326L11.2033 5.92769L11.0244 5.78211L10.8455 5.65271L10.6667 5.52331L10.4878 5.41009L10.2927 5.31304L10.0976 5.21598L9.90244 5.13511L9.70732 5.05423L9.49594 4.98953L9.28455 4.94101L9.07317 4.89248L8.86179 4.86013L8.65041 4.82778L8.43903 4.81161H8.22764H8.01626L7.80488 4.82778L7.5935 4.86013L7.38212 4.89248L7.17073 4.94101L6.95935 4.98953L6.74797 5.05423L6.55285 5.11893L6.35772 5.21598L6.1626 5.29686L5.96748 5.41009L5.78862 5.52331L5.60976 5.65271L5.4309 5.78211L5.25203 5.92769L5.08943 6.07326L4.92683 6.23501L4.78049 6.39676L4.65041 6.57469L4.52033 6.75262L4.40651 6.93054L4.30894 7.12464L4.21138 7.30257L4.13008 7.49667L4.04878 7.69077L3.98374 7.90105L3.93496 8.09515L3.88618 8.30542L3.85366 8.49952L3.82114 8.7098L3.80488 8.92008V9.11418V9.32445L3.82114 9.53473L3.85366 9.745L3.88618 9.93911L3.93496 10.1494L3.98374 10.3435L4.04878 10.5538L4.13008 10.7479L4.21138 10.942L4.30894 11.1199L4.40651 11.314L4.52033 11.4919L4.65041 11.6698L4.78049 11.8316L4.92683 12.0095L5.08943 12.1713Z" fill="white"/>
</svg>
