<svg width="20" height="20" viewBox="0 0 20 20" fill="none" xmlns="http://www.w3.org/2000/svg">
<path d="M11.3636 6.36364C11.3636 7.11675 10.7531 7.72727 10 7.72727C9.24688 7.72727 8.63636 7.11675 8.63636 6.36364C8.63636 5.61052 9.24688 5 10 5C10.7531 5 11.3636 5.61052 11.3636 6.36364Z" fill="white"/>
<path d="M11 10C11 9.49792 10.5021 9 10 9C9.49792 9 9 9.49792 9 10V14.5455C9 15.0475 9.49792 15.5 10 15.5C10.5021 15.5 11 15.0475 11 14.5455V10Z" fill="white"/>
<path fill-rule="evenodd" clip-rule="evenodd" d="M10 0C4.47715 0 0 4.47715 0 10C0 15.5228 4.47715 20 10 20C15.5228 20 20 15.5228 20 10C20 4.47715 15.5228 0 10 0ZM18 10C18 14.4183 14.4183 18 10 18C5.58172 18 2 14.4183 2 10C2 5.58172 5.58172 2 10 2C14.4183 2 18 5.58172 18 10Z" fill="white"/>
</svg>
