<svg width="512" height="512" viewBox="0 0 512 512" fill="none" xmlns="http://www.w3.org/2000/svg">
<path fill-rule="evenodd" clip-rule="evenodd" d="M497.887 172.238C506.949 198.49 511.879 226.628 511.879 255.999C511.879 397.417 397.324 512 255.941 512C169.733 512 93.5326 469.358 47.1302 404.089L148.273 323.807V370.947C148.273 386.683 156.031 400.172 169.661 408.004C183.292 415.836 198.881 415.836 212.439 408.004L411.317 293.131C424.948 285.227 432.706 271.737 432.706 256.073C432.706 240.407 424.948 226.846 411.317 219.014L386.013 204.438L465.695 168.031L497.887 172.238Z" fill="url(#paint0_linear_3122_8324)"/>
<path fill-rule="evenodd" clip-rule="evenodd" d="M55.6053 415.258C53.7927 413.01 51.9802 410.689 50.3125 408.369L148.265 314.018V370.948C148.265 386.684 156.023 400.174 169.654 408.006C183.285 415.838 198.874 415.838 212.43 408.006L411.309 293.132C424.939 285.228 432.698 271.738 432.698 256.074C432.698 240.409 424.939 226.847 411.309 219.015L396.373 210.312C411.019 212.271 444.733 201.103 458.798 271.231C472.864 341.359 415.006 377.546 268.984 447.748C145.655 506.998 74.6738 438.175 55.6053 415.258Z" fill="url(#paint1_linear_3122_8324)"/>
<path fill-rule="evenodd" clip-rule="evenodd" d="M212.798 408.508C211.203 409.742 209.029 411.483 206.202 413.513C209.029 411.483 211.203 409.742 212.798 408.508ZM50.3176 408.364C18.7059 365.867 0 313.071 0 255.996C0 142.428 73.9539 46.1923 176.33 12.6875C119.776 85.0637 93.24 113.565 94.3275 289.574C95.4875 465.584 196.341 420.04 197.355 419.604C167.194 438.824 104.696 466.019 50.3176 408.364ZM205.838 413.803C203.954 415.18 201.778 416.632 199.458 418.227C201.778 416.704 203.954 415.18 205.838 413.803Z" fill="url(#paint2_linear_3122_8324)"/>
<path fill-rule="evenodd" clip-rule="evenodd" d="M255.949 0C280.962 0 305.106 3.62607 328.018 10.298L288.866 148.234L212.446 104.068C198.816 96.2358 183.227 96.2358 169.669 104.068C156.111 111.973 148.28 125.462 148.28 141.127V370.874C148.28 386.612 156.038 400.1 169.669 407.932C183.299 415.765 198.888 415.765 212.446 407.932L215.563 406.119C215.563 406.119 208.749 412.284 197.365 419.537C196.422 419.972 73.9637 475.594 80.199 289.504C85.8542 119.805 70.556 85.0675 176.339 12.6187C201.354 4.4238 228.179 0 255.949 0Z" fill="url(#paint3_linear_3122_8324)"/>
<path fill-rule="evenodd" clip-rule="evenodd" d="M268.183 0.286133C388.394 5.94279 486.927 94.5639 507.807 210.162C403.185 145.039 265.935 37.0544 208.657 51.9213C143.549 68.9639 148.261 141.123 148.261 141.123C148.261 141.123 137.023 33.2109 268.183 0.286133Z" fill="url(#paint4_linear_3122_8324)"/>
<path fill-rule="evenodd" clip-rule="evenodd" d="M507.815 210.168C510.497 225.035 511.874 240.337 511.874 256.001C511.874 307.273 496.866 354.92 470.983 394.952C471.418 393.429 499.042 262.601 403.265 214.374L212.434 104.069C198.804 96.2367 183.215 96.2367 169.657 104.069C156.099 111.974 148.268 125.463 148.268 141.127C148.268 141.127 143.555 68.8962 208.663 51.9263C265.941 37.0594 394.057 128.001 507.815 210.168Z" fill="url(#paint5_linear_3122_8324)"/>
<defs>
<linearGradient id="paint0_linear_3122_8324" x1="47.1004" y1="340.009" x2="511.881" y2="340.009" gradientUnits="userSpaceOnUse">
<stop stop-color="#7B519D"/>
<stop offset="1" stop-color="#DD3F8D"/>
</linearGradient>
<linearGradient id="paint1_linear_3122_8324" x1="53.509" y1="371.26" x2="458.723" y2="319.385" gradientUnits="userSpaceOnUse">
<stop stop-color="#7C519D"/>
<stop offset="0.5098" stop-color="#D1438D"/>
<stop offset="1" stop-color="#C42871"/>
</linearGradient>
<linearGradient id="paint2_linear_3122_8324" x1="51.8493" y1="26.1829" x2="167.347" y2="427.735" gradientUnits="userSpaceOnUse">
<stop stop-color="#84519D"/>
<stop offset="0.5216" stop-color="#BA509A"/>
<stop offset="1" stop-color="#D83888"/>
</linearGradient>
<linearGradient id="paint3_linear_3122_8324" x1="203.974" y1="427.708" x2="203.974" y2="-0.00326318" gradientUnits="userSpaceOnUse">
<stop stop-color="#C22770"/>
<stop offset="0.5216" stop-color="#D2428C"/>
<stop offset="1" stop-color="#98519D"/>
</linearGradient>
<linearGradient id="paint4_linear_3122_8324" x1="148.024" y1="105.238" x2="507.778" y2="105.238" gradientUnits="userSpaceOnUse">
<stop stop-color="#D63F8E"/>
<stop offset="1" stop-color="#D9519D"/>
</linearGradient>
<linearGradient id="paint5_linear_3122_8324" x1="148.199" y1="222.627" x2="511.876" y2="222.627" gradientUnits="userSpaceOnUse">
<stop stop-color="#C12770"/>
<stop offset="1" stop-color="#DD519C"/>
</linearGradient>
</defs>
</svg>
